<svg xmlns="http://www.w3.org/2000/svg" viewBox="0 0 1316.98 633.66"><defs><style>.cls-1{fill:#c64c34;}.cls-2{fill:#e55f41;}.cls-3{fill:#442600;}.cls-14,.cls-4{fill:#fff;}.cls-5{fill:#feca74;}.cls-6{fill:#847d29;}.cls-7{fill:#b5292a;}.cls-8{fill:#ff5e43;}.cls-9{fill:#f7ae4f;}.cls-10{fill:#f7af2f;}.cls-11{fill:#1b191c;}.cls-12{fill:#f4f2f2;}.cls-13{fill:#f9c92d;}.cls-14{font-size:135.28px;stroke:#000;stroke-miterlimit:10;stroke-width:2px;font-family:BoucherieSans-BoldItalic, Boucherie Sans;font-weight:700;font-style:italic;}.cls-15{letter-spacing:-0.04em;}.cls-16{letter-spacing:0em;}.cls-17{letter-spacing:-0.02em;}.cls-18{letter-spacing:-0.02em;}.cls-19{letter-spacing:-0.05em;}.cls-20{letter-spacing:-0.02em;}</style></defs><g id="Layer_2" data-name="Layer 2"><g id="Hot_dog" data-name="Hot dog"><rect class="cls-1" x="194.7" y="459.61" width="10.19" height="101.63" transform="translate(-150.27 88.64) rotate(-18.31)"/><rect class="cls-2" x="121.21" y="461.68" width="10.19" height="79.83" transform="translate(-78.11 26.45) rotate(-9.14)"/><path class="cls-3" d="M210.93,562.22a1.9,1.9,0,0,1-.88-.21,2,2,0,0,1-1-1.13L177.14,464.4a2,2,0,0,1,1.24-2.47l9.68-3.2a2,2,0,0,1,1.48.11,1.92,1.92,0,0,1,1,1.13l31.93,96.48a1.94,1.94,0,0,1-1.24,2.46l-9.67,3.21A2.16,2.16,0,0,1,210.93,562.22ZM181.46,465l30.7,92.78,6-2-30.71-92.77Z"/><path class="cls-3" d="M127.62,543.76a1.94,1.94,0,0,1-1.14-.37,2,2,0,0,1-.79-1.27L113,463.3a2,2,0,0,1,1.61-2.23l10.06-1.62a2,2,0,0,1,1.46.34,2,2,0,0,1,.78,1.27l12.69,78.82a2,2,0,0,1-1.62,2.23l-10.06,1.62Zm-10.45-79.15,12.06,75,6.21-1-12.06-75Z"/><path class="cls-2" d="M47,278.68c-1.87-3.06-18.22-30.41-16.13-48.4,2.74-23.65,23.48-49,24.36-50.08l7.86,6.49c-.28.34-19.71,24.17-22.1,44.76-1.42,12.29,10.13,34.42,14.71,41.91Zm16.09-92-3.93-3.25,3.93,3.24Z"/><path class="cls-3" d="M47,280.63a2,2,0,0,1-1.66-.94c-1.91-3.11-18.57-31-16.41-49.64,2.81-24.2,23.9-50,24.8-51.09a1.94,1.94,0,0,1,1.32-.7,1.92,1.92,0,0,1,1.42.44l7.86,6.48h0a2,2,0,0,1,.25,2.74h0c-.54.65-19.37,23.95-21.66,43.74-1.36,11.68,10.26,33.83,14.43,40.66A2,2,0,0,1,56.7,275L48,280.34A2,2,0,0,1,47,280.63ZM55.51,183c-4.58,5.89-20.38,27.42-22.72,47.54C31,246,43.68,269.18,47.66,276L53,272.69c-3.57-6.21-15.53-28.21-14-41.46C41.17,212.92,56,192.66,60.37,187Z"/><path class="cls-4" d="M41.3,280s-7.63-7.91-4.72-11,13.35-9.81,16.71-7.27S61,274.64,61,274.64l-9.45,4.81Z"/><path class="cls-3" d="M41.3,282a2,2,0,0,1-1.4-.6c-1.49-1.54-8.72-9.45-4.74-13.68,2.49-2.65,14.37-11.22,19.31-7.48,3.67,2.78,7.87,12.58,8.34,13.69a2,2,0,0,1-.92,2.49l-9.44,4.82a2.1,2.1,0,0,1-.78.21l-10.26.54Zm9.93-18.88c-2.89,0-10.27,4.12-13.23,7.27-.75.8,1.28,4.52,4.11,7.66l8.94-.47,7.43-3.79c-1.75-3.85-4.51-9-6.37-10.44A1.4,1.4,0,0,0,51.23,263.07Z"/><path class="cls-4" d="M58.81,274s-8.83-9.85-17.32,1.36-7.14,18.68-8.5,19-7.47,2.72-16.3-3.06S4.8,285.19,2.42,288.59s5.1,14.09,5.1,14.09S2.16,301.16,2,308.63,17,325.28,28.58,327s25.48-10.53,25.48-10.53Z"/><path class="cls-3" d="M30.84,329.09a16.84,16.84,0,0,1-2.55-.19C17,327.24-.26,317.76,0,308.57c.09-3.22,1.06-5.52,2.86-6.85A6,6,0,0,1,4.11,301c-2.43-4-5.56-10.32-3.29-13.56,4-5.64,9.75-2.49,16.93,2.2,7,4.57,12,3.57,14,3,.07-.3.15-.68.21-1a39.84,39.84,0,0,1,8-17.52c3-3.91,6.35-6,10.06-6.12,5.83-.24,10.1,4.44,10.27,4.64a1.92,1.92,0,0,1,.49,1.52L56,316.66a1.92,1.92,0,0,1-.65,1.25C54.79,318.4,42.47,329.09,30.84,329.09ZM6.42,304.5a2.11,2.11,0,0,0-1.27.39c-.75.56-1.2,1.91-1.25,3.8-.16,5.78,13.37,14.65,25,16.36,9.29,1.36,20.7-7.43,23.35-9.6l4.56-40.74c-1.12-1-3.67-2.91-6.64-2.78-2.49.11-4.87,1.66-7.09,4.58-5.57,7.36-6.68,12.93-7.27,15.93-.37,1.83-.68,3.41-2.3,3.81l-.3.09c-2.13.6-8.6,2.45-17.55-3.4C6.11,286.72,5.09,288.17,4,289.7c-.82,1.18,1.65,6.94,5.09,11.87a1.95,1.95,0,0,1-2.13,3H7A2.44,2.44,0,0,0,6.42,304.5Z"/><path class="cls-5" d="M78.94,50.81s-38.47,15.26-33.72,71S72.4,220.3,58.81,274,28.92,411.9,93.46,421.42s29.9-226.26,29.9-226.26S104.5,64.09,78.94,50.81Z"/><path class="cls-3" d="M97.18,423.65a27.54,27.54,0,0,1-4-.3c-16.46-2.43-28.93-9.83-37.05-22-20.28-30.41-10.23-84.29.79-127.84,8.76-34.58,2.32-64.85-4.5-96.9-3.67-17.29-7.48-35.17-9.14-54.65-2.51-29.44,7-47.68,15.52-57.8,9.24-11,19-15,19.42-15.15a2,2,0,0,1,1.62.08C91,54.86,102,81.26,112.63,127.53c7.84,34.11,12.61,67,12.66,67.36S132,241.16,134,291c2.7,67.3-4,109.5-20,125.43A23.23,23.23,0,0,1,97.18,423.65ZM78.83,53A53.16,53.16,0,0,0,61.66,66.82C50.29,80.5,45.27,99.45,47.17,121.62c1.64,19.24,5.42,37,9.07,54.16,6.91,32.51,13.44,63.21,4.46,98.68C49.88,317.22,39.94,370,59.37,399.18c7.49,11.22,19.05,18.05,34.38,20.31a19.44,19.44,0,0,0,17.57-5.84c36.35-36.34,10.38-216.39,10.11-218.2-.05-.34-4.8-33.11-12.6-67.07C96.4,74.31,85.78,57.39,78.83,53Z"/><path class="cls-6" d="M84.63,96.64s-15.36,12.91-7.34,22.43,14.14,15.31,7.34,23.28-12.85,17.54-3.36,21.25,9.53,3.71,7.46,16.62-1.38,19,5.41,19.7,6.8,13.11,0,20.82S82,233.89,88.73,249.52s11,21.74-1.62,37.37.43,14.27,0,25.14-12.4,5.16-9.82,22.28,18.89,23.24,18.89,23.24,25.14-123.15,19.71-161.11S89.39,102.08,84.63,96.64Z"/><path class="cls-3" d="M96.18,359.5a2,2,0,0,1-.68-.12c-.71-.27-17.41-6.73-20.14-24.78-1.66-11,2.47-13.9,5.78-16.24,2.25-1.58,3.87-2.72,4-6.41.13-3.35-1.26-5.28-2.72-7.31-3.38-4.67-5.12-8.77,3.15-19,11-13.54,8.59-19,2.82-32l-1.47-3.35c-7.07-16.33-1.39-22.76,5.18-30.2l.56-.64c4.28-4.86,5.43-11.68,4-15.21-.86-2.19-2.3-2.33-2.77-2.38a8.36,8.36,0,0,1-6.06-3.06c-2.82-3.66-2.47-10.2-1.08-18.89.9-5.66,1.45-9.08.74-10.65-.58-1.29-2.55-2.11-7-3.83-3.27-1.28-5.25-3.28-5.92-6-1.12-4.45,1.57-10.3,8.48-18.4,5-5.84,2.1-9.68-5.49-18.56l-1.86-2.2a11.3,11.3,0,0,1-2.73-8.53c.73-8.5,9.92-16.31,10.31-16.64a2,2,0,0,1,2.72.21c5.32,6.08,26.28,62.87,31.72,100.8S99.12,352.9,98.09,357.94a2,2,0,0,1-1,1.32A2,2,0,0,1,96.18,359.5ZM84.28,99.64a35.33,35.33,0,0,0-4.73,5.76c-3.21,5-3.47,9.21-.77,12.41.63.75,1.25,1.47,1.85,2.17,7.16,8.4,12.82,15,5.49,23.63-5.85,6.87-8.43,11.89-7.67,14.92.35,1.4,1.5,2.46,3.53,3.25,10.73,4.2,10.82,5.32,8.68,18.74-1,6.34-1.77,13.19.32,15.9A4.35,4.35,0,0,0,94.34,198a7.1,7.1,0,0,1,6,4.83c2.14,5.45.1,13.72-4.74,19.22l-.57.64c-6.39,7.24-10.61,12-4.52,26.07.5,1.16,1,2.27,1.46,3.33,5.88,13.32,9.12,20.65-3.36,36.05-7,8.68-5.44,10.89-3,14.24,1.62,2.25,3.64,5.05,3.45,9.75-.22,5.6-3.24,7.73-5.66,9.44-2.94,2.07-5.47,3.86-4.17,12.47,1.84,12.2,11.27,18.47,15.54,20.71,3.47-17.45,24.1-123.74,19.2-158C108.85,161,90.3,110.41,84.28,99.64Z"/><path class="cls-2" d="M209.65,67.43S194,5.6,149.18,2.2,67,29.38,79.88,91.21s42.8,99.2,27.85,172.58-40.08,157.63-.68,196.36,92.09,17.73,108-23.11C242.94,365.7,238.19,218.26,209.65,67.43Z"/><path class="cls-7" d="M151,163c-2.5,4.76-7.13,7.49-11.29,10.65-4.85,3.69-9.41,8.29-11.2,14.3-3.26,10.95,4.9,17.52,12,24,2.2,2,5,4.38,3,7.45-3,4.54-9.71,6.31-13.84,9.72-10.45,8.63-7.6,22.58-1.48,32.9,5.16,8.69,13.79,18.15,6.18,27.93-5.52,7.1-13.7,11.88-17.75,20.16-5.55,11.38-.28,22.37,6.86,31.58,3.71,4.77,8.27,9.61,9.84,15.61,1.47,5.6-1.45,9.56-5.53,13.05-4.72,4.05-10.2,7.07-14.21,11.93-4.27,5.16-6.93,11.55-5.22,18.29,1.58,6.25,6.79,10.92,12.34,13.77s12.54,4,17.38,8.28c5.62,5,13.93-3.27,8.27-8.27-4.48-3.95-9.68-6.06-15.19-8.17-4-1.53-9.9-3.67-11.39-8.18s3.18-9.08,6.33-11.73c4-3.41,8.7-6.08,12.4-9.93,8.94-9.27,8.27-21.33,1.67-31.79-4.89-7.76-17.74-17.91-13.54-28.31,3-7.37,11.1-12,16-18,7.26-8.84,8.34-18.85,3.43-29.23-3.48-7.36-17.5-21.69-9.84-30.07,3.51-3.85,9.19-5.49,13.18-8.86,4.35-3.67,7.19-9,6.41-14.77-.66-4.88-3.75-8.72-7.32-11.91-2.81-2.52-7.35-5.16-8.71-8.86-1.88-5.13,4.64-9.95,8.12-12.5,5.1-3.73,10.19-7.42,13.19-13.15,3.49-6.66-6.6-12.58-10.1-5.9Z"/><path class="cls-1" d="M111.71,125.42c-2.07,12.55-7.08,11.85-7.08,11.85l-2-3.92s4.61,19.83,30.05,13.16,34.23-36,34.23-36L159.29,103c-24.84,23-51.47,12.86-51.47,12.86Z"/><path class="cls-8" d="M109.65,143.76a25.66,25.66,0,0,1,17.71-7.68c11.26-.27,16.08,5.81,16.08,5.81C131.6,148.7,120.27,150.08,109.65,143.76Z"/><path class="cls-4" d="M109.25,116.28l-.56,7.85s10.28,5.79,26.59,2.36S156.23,114,156.23,114l-3.17-6C140.78,118,126.28,121.1,109.25,116.28Z"/><path class="cls-1" d="M209.65,67.43S194,5.6,149.18,2.2a83.14,83.14,0,0,0-18.74.64c40.37,8,54.63,64.45,54.63,64.45,28.54,150.88,33.29,298.37,5.44,369.74-8.48,21.71-27.33,37.81-49,42.32,31.15,6.5,62.06-12.68,73.62-42.31C242.94,365.7,238.19,218.26,209.65,67.43Z"/><path class="cls-3" d="M153.62,482.59c-17.22,0-33.87-7.23-47.93-21C70.45,426.91,85.41,358,99.87,291.36c2-9.23,4.08-18.78,5.95-28,10.26-50.37-1-84.12-12.91-119.85C87.52,127.39,82,110.68,78,91.61,70.25,54.66,80.85,33,91.11,21.3c13.3-15.17,34.52-22.84,58.22-21,19,1.44,35.79,13.48,48.57,34.83A131.37,131.37,0,0,1,211.54,67a.5.5,0,0,1,0,.12C225.92,143,234.19,217.29,235.46,282c1.33,67.39-5.09,121.24-18.56,155.74-8.59,22-27.78,38.66-50.07,43.43A63.4,63.4,0,0,1,153.62,482.59ZM142.59,3.9c-19.82,0-37.27,7.11-48.55,20C80.18,39.66,75.94,62.81,81.78,90.81c3.94,18.85,9.48,35.45,14.83,51.5,12.09,36.25,23.5,70.48,13,121.87-1.87,9.2-4,18.76-6,28-14.25,65.6-29,133.44,4.73,166.56,16.67,16.39,37.12,23,57.59,18.61,21-4.5,39.13-20.22,47.26-41,13.29-34,19.61-87.36,18.3-154.25-1.28-64.48-9.51-138.56-23.83-214.23C207.2,65.77,191.39,7.36,149,4.15Q145.78,3.89,142.59,3.9Z"/><path class="cls-6" d="M185.87,96.64S165.07,127,169,141.06s9.37,18.09,4.28,28.28-7.14,15.46,0,27.1,2.64,18.08-4.28,24.37,9.37,11,14.13,22.56-1.56,25.85-6.55,36,2.47,9.07,4.51,19.15-11.55,18.22-7.81,31.13S174.58,346,169,347.36s-13.73,28.53,4.28,44.16,26.84-159.33,22.08-208.08S185.87,96.64,185.87,96.64Z"/><path class="cls-3" d="M175.53,394.45A5.25,5.25,0,0,1,172,393c-11.81-10.24-13.22-25.44-10.6-36.24,1.19-4.9,3.69-10.45,7.13-11.29,2-.5,3.2-1.19,3.85-2.31,1.24-2.14.92-6.36-1-12.92-2.26-7.8,1.14-14,4.15-19.42,2.36-4.28,4.41-8,3.62-11.87a16.49,16.49,0,0,0-3.53-7.33c-2.63-3.53-4.11-6.35-.82-13.05,5.83-11.91,10.66-24.31,6.5-34.45-1.91-4.63-5.9-8.13-9.43-11.21s-6.51-5.7-6.54-8.92a6.1,6.1,0,0,1,2.33-4.61c7.23-6.57,10-12,3.93-21.91-7.67-12.51-5.31-18.55-.08-29,3.2-6.4,1.87-9.77-.78-16.47a99.53,99.53,0,0,1-3.64-10.41c-4.14-14.73,16.25-44.78,17.12-46a1.95,1.95,0,0,1,3.54.86c0,.38,4.82,38.63,9.52,86.85,2.25,23,1.51,72.94-1.76,118.72-1.74,24.45-4.06,45.51-6.71,60.92-4.27,24.86-8.4,29.61-11.14,31A4.71,4.71,0,0,1,175.53,394.45Zm9.05-292.24c-6.43,10.39-16.28,29.11-13.69,38.32a99.25,99.25,0,0,0,3.51,10c2.69,6.78,4.62,11.68.64,19.65-5,9.92-6.71,14.38-.08,25.2,8.23,13.41,1.92,20.88-4.63,26.83a2.51,2.51,0,0,0-1.05,1.7c0,1.46,2.65,3.78,5.21,6,3.66,3.2,8.21,7.18,10.46,12.66,4.75,11.56-.37,24.92-6.6,37.64-2.49,5.07-1.57,6.31.44,9a20.23,20.23,0,0,1,4.23,8.9c1.07,5.29-1.52,10-4,14.53-2.89,5.24-5.63,10.2-3.82,16.45,2.27,7.84,2.46,12.76.61,16a9.41,9.41,0,0,1-6.3,4.14c-.8.2-2.94,2.95-4.27,8.42-2.35,9.69-1.12,23.28,9.37,32.38.79.68,1.12.51,1.34.4,4.73-2.45,11.35-27,15.75-88.75,3.25-45.59,4-95.25,1.77-118.07C189.76,145.94,186.05,114.35,184.58,102.21Z"/><path class="cls-5" d="M197.29,37.9S244.13,26,277.76,92.23s13.44,212,3.91,272.11C270.8,433,233.69,469,193.34,439.08,142.3,401.26,187,364,190,311.35c3.72-65.76-1.77-99.84-8.84-147.44-6.18-41.66-7.81-52.66-.68-69.64s29.22-26.84,29.22-26.84S199.53,41.64,197.29,37.9Z"/><path class="cls-9" d="M277.76,92.23C244.13,26,197.29,37.9,197.29,37.9c.35.59.9,1.72,1.57,3.2,16.71,2.95,41.42,14.32,61.45,52.57,33.63,64.23,13.44,205.52,3.91,263.84-9.36,57.25-38.14,91.09-71.68,81l.8.61c40.35,29.9,77.46-6.11,88.33-74.74C291.2,304.2,311.4,158.47,277.76,92.23Z"/><path class="cls-10" d="M130.74,529.16c-11,.73-11.8,3.18-21.14,8.44-10,5.62-32.31.51-46.88-8.44-10.11-6.2-36.18-10.92-45.86,10.67-11.24,25.06,14.78,38,35.67,38,16.81,0,69.3-5.61,89.17-13.25S149.52,527.92,130.74,529.16Z"/><path class="cls-10" d="M213.2,550.9c-3.64.72-5.59,2-9,6.31a23.29,23.29,0,0,0-4.42,10.46c-2.55,14.27,35.67,56.56,76.43,63.19s45.36-27.47,38.73-40-20.89-15.06-31.59-13-8.66,1.53-15.8,0S230.37,561.72,226.3,557,219.71,549.63,213.2,550.9Z"/><path class="cls-4" d="M58.81,569.2c-4.92-1,1.87-12.23,0-28.2a28.24,28.24,0,0,0-8-16.23c-11.83-2.34-27-.31-33.92,15.06-11.24,25.06,14.78,38,35.67,38,16.81,0,69.3-5.61,89.17-13.25,5.4-2.08,8.45-5.86,9.54-9.62C124.7,568.8,63.46,570.16,58.81,569.2Z"/><path class="cls-4" d="M276.23,630.86c40.77,6.62,45.36-27.47,38.73-40-6.5-12.28-20.36-15-31-13.13C264.71,586.51,263,612,263,612s-13.76,2-30.27-8.66-32.92-35.67-32.92-35.67C197.25,581.94,235.47,624.23,276.23,630.86Z"/><path class="cls-3" d="M52.53,579c-12.83,0-29-4.92-36.07-15.9-4.38-6.77-4.61-15-.67-23.78C24.47,520,44.94,522.42,51,523.62l.36.07.26.27A29.22,29.22,0,0,1,60,540.86c.94,8-.23,14.73-1.09,19.68-.88,5.13-1.12,7.24.17,7.51,3.75.78,64.92-.19,91.65-14.09l2.43-1.27-.76,2.63c-1.34,4.61-5.07,8.39-10.25,10.38C122.11,573.4,68.92,579,52.53,579Zm-10-53.91c-8.27,0-19,2.7-24.64,15.19-3.65,8.14-3.48,15.39.51,21.55,6.63,10.24,21.9,14.83,34.1,14.83,16.26,0,69-5.56,88.75-13.17a15.05,15.05,0,0,0,7.64-6.1c-27.61,12.39-85.08,14-90.34,12.92h0c-3.64-.75-2.95-4.71-2-10.2.83-4.81,2-11.39,1.07-19a26.82,26.82,0,0,0-7.46-15.29A42,42,0,0,0,42.56,525.12Z"/><path class="cls-3" d="M286.13,632.88a62.52,62.52,0,0,1-10.08-.87h0c-27.94-4.54-56.43-26.49-70.13-45.82-5.47-7.72-8-14.37-7.27-18.73l.51-2.89,1.61,2.45c.17.25,16.49,24.89,32.59,35.34,13.57,8.8,25.28,8.78,28.55,8.57.54-4.93,3.86-26.19,21.58-34.24l.28-.09c10.55-1.82,25.32.69,32.23,13.73,3.93,7.43,3.87,20.86-3,30.49C308.79,626.63,300.87,632.88,286.13,632.88Zm-85-61.15c.82,3.55,3.11,8.1,6.66,13.11,13.42,18.93,41.29,40.42,68.59,44.86h0c20.2,3.28,30-3.76,34.64-10.24,6.29-8.78,6.39-21.38,2.87-28-6.29-11.88-19.84-14.19-29.61-12.55-18.29,8.43-20.15,33-20.17,33.2l-.06.94-.93.14c-.58.09-14.39,2-31.07-8.84C219.06,595.87,206.32,579,201.17,571.73Z"/><ellipse class="cls-4" cx="102.6" cy="85.22" rx="11.51" ry="17.18" transform="translate(-6.62 8.66) rotate(-4.68)"/><path class="cls-3" d="M103.37,103.54C96.69,103.54,90.76,96,90,86.26c-.83-10.09,4.17-18.75,11.14-19.33s13.32,7.17,14.14,17.26h0a23.13,23.13,0,0,1-2.51,13c-2.1,3.77-5.16,6-8.63,6.28C103.86,103.53,103.61,103.54,103.37,103.54Zm-1.52-34.3a5.25,5.25,0,0,0-.56,0c-5.68.46-9.72,8-9,16.8s5.94,15.58,11.62,15.11c2.66-.22,5.07-2,6.77-5.09a20.7,20.7,0,0,0,2.23-11.71C112.21,75.87,107.31,69.24,101.85,69.24Z"/><ellipse class="cls-3" cx="106.79" cy="84.88" rx="5.97" ry="8.62" transform="translate(-11.49 16.92) rotate(-8.6)"/><path class="cls-4" d="M104.46,79.94a2.29,2.29,0,1,1-2.29-2.29A2.3,2.3,0,0,1,104.46,79.94Z"/><ellipse class="cls-4" cx="140.98" cy="81.46" rx="11.51" ry="17.18" transform="translate(-6.18 11.78) rotate(-4.68)"/><path class="cls-3" d="M141.73,99.77c-3.2,0-6.29-1.69-8.78-4.81a23.24,23.24,0,0,1-4.61-12.47c-.82-10.08,4.18-18.75,11.15-19.32s13.31,7.17,14.13,17.25h0a23.17,23.17,0,0,1-2.51,13c-2.1,3.76-5.16,6-8.63,6.27Q142.1,99.77,141.73,99.77Zm-1.5-34.29-.55,0c-5.69.47-9.73,8-9,16.8a20.89,20.89,0,0,0,4.11,11.2c2.18,2.74,4.84,4.13,7.51,3.91s5.07-2,6.78-5.08a20.8,20.8,0,0,0,2.22-11.72C150.59,72.1,145.69,65.48,140.23,65.48Z"/><path class="cls-3" d="M149.88,80.35c.71,4.71-1.36,8.92-4.62,9.42s-6.48-2.92-7.2-7.63,1.36-8.92,4.62-9.41S149.17,75.65,149.88,80.35Z"/><path class="cls-4" d="M141.64,76.3A2.29,2.29,0,1,1,139.35,74,2.28,2.28,0,0,1,141.64,76.3Z"/><path class="cls-2" d="M93.44,105.36s8.9-11.25,25.72-3.75"/><path class="cls-2" d="M132.65,101.27s8.9-11.26,25.71-3.75"/><path class="cls-3" d="M93.44,106.53a1.15,1.15,0,0,1-.72-.25,1.16,1.16,0,0,1-.19-1.64c.31-.4,7.81-9.64,22-5.9A1.17,1.17,0,1,1,114,101c-12.75-3.35-19.53,5-19.6,5.09A1.16,1.16,0,0,1,93.44,106.53Z"/><path class="cls-3" d="M132.65,102.44a1.16,1.16,0,0,1-.92-1.89c.1-.12,9.66-11.89,27.11-4.1a1.17,1.17,0,0,1-1,2.14c-15.81-7.06-24.24,3.3-24.32,3.41A1.18,1.18,0,0,1,132.65,102.44Z"/><path class="cls-11" d="M76,55.48s9.43-8.69,28.5.93L103,58.28s-20-3.47-27,4.68C74.64,61,74.65,58.51,76,55.48Z"/><path class="cls-11" d="M153.32,41.7s-12.06-4.94-26.82,11l2.1,1.25S146.47,43.52,156,48.83C156.53,46.5,155.64,44.12,153.32,41.7Z"/><path class="cls-3" d="M122.89,149.06a23.07,23.07,0,0,1-12.15-3.14,21.22,21.22,0,0,1-9.28-12.3,1.18,1.18,0,0,1,.88-1.41,1.17,1.17,0,0,1,1.4.88A19.17,19.17,0,0,0,112,143.94c5.21,3.13,12.07,3.62,20.37,1.44,22.41-5.88,31.71-30.23,33.2-34.56l-6.3-6.25C134.4,126.8,107.67,117,107.4,116.91a1.17,1.17,0,1,1,.83-2.18c.26.1,26.28,9.56,50.26-12.63a1.16,1.16,0,0,1,1.62,0l7.6,7.54a1.16,1.16,0,0,1,.29,1.16c-.08.3-9.27,30.05-35.05,36.81A40,40,0,0,1,122.89,149.06Z"/><path class="cls-3" d="M221.72,451.62c-9.7,0-19.71-3.68-29.54-11-35.39-26.22-26.25-52.24-15.68-82.35,5.18-14.75,10.53-30,11.5-47.06,3.6-63.6-1.35-96.82-8.19-142.81l-.63-4.23c-6.22-41.92-7.89-53.19-.54-70.69,6.25-14.9,23.1-24.33,28.53-27.06-3.19-8.07-9.91-24.8-11.55-27.55A2,2,0,0,1,196.81,36c.5-.13,12.45-3.06,28.72,2.36,14.87,5,36.3,18.16,54,53,23.63,46.55,25.05,141,4.1,273.31C276.73,408,259,439.42,236.29,448.73A38.35,38.35,0,0,1,221.72,451.62ZM200.21,39.37c3.44,7.45,10.89,26.43,11.25,27.35a2,2,0,0,1-1,2.49C210.23,69.3,189,79,182.23,95c-6.93,16.49-5.29,27.53.81,68.6l.63,4.24c6.87,46.21,11.84,79.6,8.22,143.6-1,17.62-6.69,33.83-11.71,48.13C169.7,389.43,161.42,413,194.5,437.52c13.7,10.15,27.64,12.77,40.31,7.59,21.48-8.78,38.28-39.08,44.93-81.07C300.57,232.6,299.28,138.92,276,93.11c-17.07-33.63-37.55-46.32-51.72-51A55.16,55.16,0,0,0,200.21,39.37Z"/><path class="cls-2" d="M287.7,215.31c-23.82,0-45-15.73-46.13-16.59l6.14-8.14c.31.24,31.11,23,56.21,11,24.77-11.9,36.7-45,36.81-45.3l9.61,3.39c-.54,1.52-13.49,37.39-42,51.1A47.22,47.22,0,0,1,287.7,215.31Z"/><path class="cls-3" d="M287.7,217.26c-24.54,0-46.39-16.29-47.31-17a2,2,0,0,1,2.35-3.12c.88.67,21.71,16.2,45,16.2A45.3,45.3,0,0,0,307.49,209c24.55-11.8,37.3-40.56,40.32-48.16l-5.94-2.11c-2.93,7.23-15,34-37.11,44.6-26.11,12.53-56.72-10.11-57-10.34a2,2,0,0,1,2.34-3.12h0c.29.22,29.07,21.43,53,9.94s35.71-43.87,35.82-44.19a2,2,0,0,1,2.49-1.19l9.61,3.39a2,2,0,0,1,1.19,2.49c-.55,1.55-13.75,38.15-43,52.2A49,49,0,0,1,287.7,217.26Z"/><path class="cls-12" d="M334,153.67s-7.63,12-4.36,15.17,15.35,11.35,21,6.63,7.09-15.17,7.09-15.17Z"/><path class="cls-3" d="M346.22,178.88c-7.28,0-16.06-6.82-17.93-8.65-4.09-4,2.08-14.48,4.07-17.61a2,2,0,0,1,2.17-.83l23.7,6.63a2,2,0,0,1,1.41,2.15c-.07.46-1.63,11.24-7.76,16.39A8.56,8.56,0,0,1,346.22,178.88ZM334.9,155.94c-3,5.14-4.91,10.51-3.9,11.5,3.63,3.52,14.25,10,18.37,6.53,3.73-3.13,5.46-9.31,6.09-12.27Z"/><path class="cls-12" d="M323.88,142.3c4.08,7.39,8.66,19.11,27.77,21.14s32.11-16.81,34.14-22.42-10.7-27-10.7-27,6.37-27.52,7.39-34.66-3.57-11.32-10-8.91c-4.77,1.79-12.43,37.45-13.19,38.47s-.77-32.36-.77-35.67-6.37-7.39-10.7-3.82-5.61,43.31-5.61,43.31-16.56,1-19.61,8.92S323.88,142.3,323.88,142.3Z"/><path class="cls-3" d="M354.55,165.55a27.51,27.51,0,0,1-3.11-.17c-18.54-2-24.38-13-28.24-20.23-.35-.66-.69-1.3-1-1.91a3.09,3.09,0,0,1-.14-.32c-.18-.54-4.52-13.5-1.24-22,2.88-7.45,14.82-9.49,19.54-10,.47-13,1.94-39.47,6.26-43a8.37,8.37,0,0,1,9.1-.9c2.87,1.35,4.79,3.86,4.79,6.23,0,9.18,0,17.16.15,23.2,5.15-19.48,8.09-26.67,11.18-27.83,3.57-1.33,7-1,9.44,1,2.62,2.1,3.77,5.76,3.16,10-.93,6.55-6.19,29.48-7.24,34.05,2.88,4.91,12.58,22.15,10.46,28C385.28,148.13,372.86,165.55,354.55,165.55Zm-28.87-24c.31.57.63,1.18,1,1.8,3.89,7.32,8.74,16.43,25.22,18.19,17.88,1.91,30.21-15.94,32.1-21.15,1.07-2.93-4.64-15.43-10.54-25.35a1.94,1.94,0,0,1-.23-1.43c.07-.28,6.37-27.52,7.36-34.49.41-2.88-.22-5.23-1.74-6.45-1.34-1.08-3.33-1.22-5.58-.38-2.91,2-8.45,23.62-10.28,30.76-1.54,6-1.7,6.54-2.09,7.07a2,2,0,0,1-2.22.7c-1.54-.51-1.58-1.63-1.75-7-.09-2.78-.17-6.66-.22-11.54-.08-7.39-.09-15.07-.09-19,0-.63-.88-1.92-2.55-2.7a4.61,4.61,0,0,0-5,.38c-2.26,2.21-4.31,23.46-4.9,41.87a2,2,0,0,1-1.82,1.89c-4.27.26-15.79,2.16-17.93,7.67C321.83,129.06,325.22,140.09,325.68,141.52Z"/><path class="cls-3" d="M237.69,210.54a1.51,1.51,0,0,1-.3,0,1.93,1.93,0,0,1-1.63-2.21A33.21,33.21,0,0,1,256.22,184a2,2,0,0,1,1.47,3.62,29.33,29.33,0,0,0-18.08,21.29A2,2,0,0,1,237.69,210.54Z"/><path class="cls-12" d="M367.81,147.36a4.82,4.82,0,0,1,0-6.81l16-14.81a4.83,4.83,0,0,1,6.79.52l1.53,1.65a4.82,4.82,0,0,1,0,6.81l-16,14.81a4.81,4.81,0,0,1-6.79-.52Z"/><path class="cls-3" d="M373.11,152.65l-.52,0a7.15,7.15,0,0,1-4.68-2.29l-1.53-1.65a7.13,7.13,0,0,1-1.93-4.84,6.38,6.38,0,0,1,2-4.73l16-14.81a6.37,6.37,0,0,1,4.87-1.66,7.13,7.13,0,0,1,4.68,2.29l1.53,1.64a6.79,6.79,0,0,1-.1,9.57l-16,14.81A6.33,6.33,0,0,1,373.11,152.65Zm13.68-26.12a2.46,2.46,0,0,0-1.7.64l-16,14.81a2.53,2.53,0,0,0-.78,1.87,3.26,3.26,0,0,0,.89,2.19h0l1.53,1.65a3.25,3.25,0,0,0,2.12,1.05,2.49,2.49,0,0,0,1.91-.64l16-14.81a2.88,2.88,0,0,0-.11-4l-1.53-1.65a3.25,3.25,0,0,0-2.12-1Z"/><path class="cls-12" d="M358.31,138.32c-2.22-2.39-2.34-5.88-.28-7.8l17.58-16.31c2.07-1.91,5.54-1.53,7.76.87l1.8,1.94c2.22,2.4,2.35,5.89.29,7.8l-17.59,16.31c-2.06,1.92-5.53,1.53-7.75-.86Z"/><path class="cls-3" d="M364.67,144.29a8.23,8.23,0,0,1-6-2.7l-1.81-1.94a8.34,8.34,0,0,1-2.26-5.34,6.61,6.61,0,0,1,2.09-5.22l17.58-16.31a6.64,6.64,0,0,1,5.36-1.69,8.34,8.34,0,0,1,5.15,2.66l1.8,2a8.33,8.33,0,0,1,2.27,5.33,6.68,6.68,0,0,1-2.09,5.22L369.2,142.56A6.6,6.6,0,0,1,364.67,144.29Zm14.15-29.35a2.75,2.75,0,0,0-1.88.7L359.36,132a2.82,2.82,0,0,0-.85,2.22,4.45,4.45,0,0,0,1.23,2.82h0l1.81,1.95c1.48,1.6,3.73,1.94,5,.76l17.58-16.31a2.77,2.77,0,0,0,.84-2.22,4.37,4.37,0,0,0-1.23-2.82l-1.8-1.95a4.44,4.44,0,0,0-2.72-1.43Z"/><path class="cls-3" d="M334.07,133a2,2,0,0,1-.35-3.87c4.84-.88,16.21-3.78,18.52-6.69,1.23-1.55,2-4.11,1-5.81-1.21-2.1-5.13-2.83-10.76-2a2,2,0,0,1-.57-3.86c9.49-1.4,13.24,1.35,14.71,3.91,2,3.38.66,7.65-1.36,10.19-4,5-20.18,8-20.87,8.09A1.39,1.39,0,0,1,334.07,133Z"/><path class="cls-3" d="M52.53,579.81c-13,0-29.45-5-36.72-16.26-4.53-7-4.79-15.48-.73-24.52a27.07,27.07,0,0,1,17.27-15.55c10.85-3.35,24-.51,31.39,4,15.25,9.36,36.23,13.29,44.9,8.4,2.19-1.23,3.9-2.3,5.4-3.25,5-3.12,7.73-4.85,16.58-5.43,11.52-.78,20.62,8.82,22.75,18.53,2.06,9.36-2.14,17.28-11,20.68C121.48,574.48,68.42,579.81,52.53,579.81Zm-9.91-53.89a31.12,31.12,0,0,0-9.12,1.28,23.35,23.35,0,0,0-14.86,13.43c-3.54,7.88-3.39,14.88.44,20.8,6.44,10,21.85,14.48,33.45,14.48,16.21,0,68.77-5.54,88.47-13.12,7-2.69,10.21-8.75,8.57-16.21-1.79-8.09-9.27-16.1-18.7-15.47l-.13-2,.13,2c-7.86.52-10,1.87-14.75,4.85-1.55,1-3.3,2.06-5.56,3.34-10.94,6.16-34.09.59-48.86-8.48C57.17,528,49.89,525.92,42.62,525.92Z"/><path class="cls-3" d="M286.14,633.66a64.35,64.35,0,0,1-10.22-.88c-28.15-4.58-56.84-26.67-70.63-46.13-4-5.59-8.46-13.47-7.41-19.33A25.15,25.15,0,0,1,202.69,556c3.57-4.56,5.94-6.2,10.13-7,7.88-1.55,11.16,2.28,15,6.71,3.62,4.22,33.36,18.79,40.2,20.25,1.29.28,2.29.52,3.12.73,3.46.84,3.52.86,11.9-.74,11-2.09,26.43.32,33.68,14,4.05,7.63,4,21.43-3.08,31.3C309.31,627.25,301.2,633.66,286.14,633.66Zm-69.9-81.14a13.7,13.7,0,0,0-2.67.3h0c-3,.59-4.59,1.48-7.81,5.59a21.43,21.43,0,0,0-4,9.6c-.62,3.48,1.84,9.45,6.75,16.38,13.32,18.8,41,40.14,68.08,44.54,19.8,3.22,29.35-3.62,33.88-9.93,6.12-8.53,6.22-20.76,2.81-27.21-6.26-11.82-19.81-13.86-29.51-12-8.86,1.69-9.37,1.72-13.56.69-.8-.19-1.76-.43-3-.69-7.1-1.53-37.76-16.19-42.35-21.54C221.57,554.45,219.75,552.52,216.24,552.52Zm-3.05-1.62h0Z"/><path class="cls-3" d="M26.77,313.32h-.13c-10.25-.68-20-8.79-20.38-9.13a2,2,0,0,1,2.51-3c.09.08,9.17,7.63,18.13,8.23a2,2,0,0,1-.13,3.9Z"/><path class="cls-3" d="M125,128.76c-10.37,0-16.59-3.42-16.93-3.61a1.17,1.17,0,0,1-.59-1.1l.57-7.85a1.17,1.17,0,0,1,1.25-1.08,1.16,1.16,0,0,1,1.08,1.25l-.51,7.06c2.46,1.13,11.75,4.73,25.13,1.92s18.6-9.52,19.84-11.41L152,108.58a1.17,1.17,0,0,1,2.06-1.1l3.17,6a1.18,1.18,0,0,1,0,1.08c-.2.4-5.08,9.62-21.75,13.13A51.26,51.26,0,0,1,125,128.76Z"/><path class="cls-3" d="M104.82,138.45a2.13,2.13,0,0,1-.35,0,1.17,1.17,0,0,1,.29-2.32c.15,0,4,0,5.8-10.87a1.17,1.17,0,1,1,2.31.38C110.9,137.52,106.22,138.45,104.82,138.45Z"/><path class="cls-3" d="M109.65,144.93a1.18,1.18,0,0,1-.77-.28,1.16,1.16,0,0,1-.11-1.65,26.59,26.59,0,0,1,18.56-8.09c11.72-.28,16.82,6,17,6.25a1.17,1.17,0,0,1-1.83,1.45c-.19-.22-4.65-5.61-15.14-5.36a24.64,24.64,0,0,0-16.86,7.28A1.15,1.15,0,0,1,109.65,144.93Z"/><path class="cls-3" d="M116.65,111.17a1.12,1.12,0,0,1-.71-.25,9.1,9.1,0,0,1-2.79-10c1.59-4.7,6.66-5.35,9.12-5a1.17,1.17,0,1,1-.29,2.33c-.23,0-5.24-.59-6.61,3.46a6.78,6.78,0,0,0,2,7.43,1.17,1.17,0,0,1,.21,1.64A1.21,1.21,0,0,1,116.65,111.17Z"/><path class="cls-13" d="M132.08,179.26c4.19-1.09,8.59,1,9.68,5.34,1.18,4.67-2.21,8-5,11.21-3.49,4-6.6,8.16-7.13,13.58A19.5,19.5,0,0,0,133.24,222c4.8,7.15,13.85,13.34,8.89,22.83-5.23,10-16.17,15.56-20.81,26.09-4.36,9.91-1.4,19.76,2.92,29.09,3.6,7.77,9.59,17,6,25.76-2.15,5.2-6.53,9.25-10.12,13.43-3.95,4.6-7.6,9.66-9.3,15.56-3.62,12.47,4.26,21.08,12.74,28.9,3.78,3.47,9.58,9.11,6,14.56-3.1,4.76-8.9,7.26-12.68,11.42-4.15,4.55-6.66,10.5-4.78,16.64,1.7,5.52,6.53,9.92,12.52,9.6,7.49-.41,7.54-12.11,0-11.7-1.23.07-.36.32-.74-.15a3.43,3.43,0,0,1-.7-1.48c-.41-2.13,1.38-4.09,2.77-5.47,3.74-3.71,8.42-6.29,11.79-10.39,8.66-10.54,3.4-22.58-5.51-30.91-3.55-3.32-8.33-6.63-10.11-11.35-2-5.27,1.41-10.85,4.54-14.92,7-9.16,16.23-16.72,16.38-29.27.11-10.21-5.69-19-9.57-28.09-1.64-3.82-3.17-8.18-2.65-12.4.62-5.1,4.16-9.16,7.61-12.71,7.79-8.05,17.76-16.82,17-29.17-.3-5-2.47-9.4-5.43-13.35-2.57-3.42-5.93-6.54-7.88-10.38-2.15-4.23.39-7.28,3.2-10.46,4-4.56,7.69-9.14,8.29-15.43,1.28-13.66-11.8-23.61-24.66-20.28-7.28,1.88-4.19,13.17,3.11,11.28Z"/><path class="cls-3" d="M77.22,534.82c2.08,3.86,4.06,7.71,3.74,12.22-.19,2.51,3.72,2.5,3.9,0,.37-5.18-1.88-9.76-4.28-14.19-1.19-2.21-4.56-.25-3.36,2Z"/><path class="cls-3" d="M93.1,538.77c1.27,3.09,2.67,6.37,2,9.78-.45,2.46,3.31,3.51,3.76,1,.78-4.22-.45-8-2-11.86-.94-2.29-4.72-1.29-3.76,1Z"/><path class="cls-3" d="M257.54,570a19.18,19.18,0,0,0-12.24,15.13c-.35,2.45,3.41,3.52,3.76,1a15.38,15.38,0,0,1,9.52-12.41c2.31-.9,1.31-4.67-1-3.76Z"/><path class="cls-3" d="M245.53,563a23.77,23.77,0,0,0-14.17,13.64c-.94,2.32,2.83,3.33,3.76,1a19.52,19.52,0,0,1,11.45-10.91c2.34-.84,1.33-4.61-1-3.76Z"/><text class="cls-14" transform="translate(600.56 340.88)"><tspan class="cls-15">W</tspan><tspan class="cls-16" x="92.4" y="0">e</tspan><tspan class="cls-17" x="147.32" y="0">in</tspan><tspan class="cls-18" x="242.97" y="0">e</tspan><tspan x="294.51" y="0">r </tspan><tspan class="cls-19" x="389.2" y="0">W</tspan><tspan class="cls-20" x="480.25" y="0">ork</tspan><tspan x="656.66" y="0">s</tspan></text></g></g></svg>